<?xml version="1.0" encoding="utf-8" ?>
<svg baseProfile="full" height="600" version="1.1" width="800" xmlns="http://www.w3.org/2000/svg" xmlns:ev="http://www.w3.org/2001/xml-events" xmlns:xlink="http://www.w3.org/1999/xlink"><defs /><polygon fill="blue" opacity="0.5" points="61.60676519529808,158.28754931158636 71.75080014312388,344.13402546939614 232.18047158578673,188.3642959476734" stroke="black" /><polygon fill="blue" opacity="0.5" points="71.75080014312388,344.13402546939614 232.18047158578673,188.3642959476734 242.32450653361252,374.2107721054832" stroke="black" /><polygon fill="red" opacity="0.5" points="-42.32450653361252,225.78922789451678 -32.180471585786734,411.63570405232656 128.24919985687612,255.86597453060384" stroke="black" /><polygon fill="red" opacity="0.5" points="-32.180471585786734,411.63570405232656 128.24919985687612,255.86597453060384 138.39323480470193,441.71245068841364" stroke="black" /><polygon fill="green" opacity="0.5" points="61.60676519529808,158.28754931158636 71.75080014312388,344.13402546939614 -42.32450653361252,225.78922789451678" stroke="black" /><polygon fill="green" opacity="0.5" points="71.75080014312388,344.13402546939614 -42.32450653361252,225.78922789451678 -32.180471585786734,411.63570405232656" stroke="black" /><polygon fill="purple" opacity="0.5" points="232.18047158578673,188.3642959476734 242.32450653361252,374.2107721054832 128.24919985687612,255.86597453060384" stroke="black" /><polygon fill="purple" opacity="0.5" points="242.32450653361252,374.2107721054832 128.24919985687612,255.86597453060384 138.39323480470193,441.71245068841364" stroke="black" /><polygon fill="yellow" opacity="0.5" points="61.60676519529808,158.28754931158636 232.18047158578673,188.3642959476734 -42.32450653361252,225.78922789451678" stroke="black" /><polygon fill="yellow" opacity="0.5" points="232.18047158578673,188.3642959476734 -42.32450653361252,225.78922789451678 128.24919985687612,255.86597453060384" stroke="black" /><polygon fill="white" opacity="0.5" points="71.75080014312388,344.13402546939614 242.32450653361252,374.2107721054832 -32.180471585786734,411.63570405232656" stroke="black" /><polygon fill="white" opacity="0.5" points="242.32450653361252,374.2107721054832 -32.180471585786734,411.63570405232656 138.39323480470193,441.71245068841364" stroke="black" /><polygon fill="blue" opacity="0.5" points="241.16965049716003,146.86124004807468 321.88142674272854,313.045981486483 335.1389125757509,181.06325438064155" stroke="black" /><polygon fill="blue" opacity="0.5" points="321.88142674272854,313.045981486483 335.1389125757509,181.06325438064155 415.8506888213194,347.24799581904995" stroke="black" /><polygon fill="red" opacity="0.5" points="84.14931117868062,252.75200418095008 164.8610874242491,418.9367456193585 178.1185732572715,286.954018513517" stroke="black" /><polygon fill="red" opacity="0.5" points="164.8610874242491,418.9367456193585 178.1185732572715,286.954018513517 258.83034950283997,453.1387599519253" stroke="black" /><polygon fill="green" opacity="0.5" points="241.16965049716003,146.86124004807468 321.88142674272854,313.045981486483 84.14931117868062,252.75200418095008" stroke="black" /><polygon fill="green" opacity="0.5" points="321.88142674272854,313.045981486483 84.14931117868062,252.75200418095008 164.8610874242491,418.9367456193585" stroke="black" /><polygon fill="purple" opacity="0.5" points="335.1389125757509,181.06325438064155 415.8506888213194,347.24799581904995 178.1185732572715,286.954018513517" stroke="black" /><polygon fill="purple" opacity="0.5" points="415.8506888213194,347.24799581904995 178.1185732572715,286.954018513517 258.83034950283997,453.1387599519253" stroke="black" /><polygon fill="yellow" opacity="0.5" points="241.16965049716003,146.86124004807468 335.1389125757509,181.06325438064155 84.14931117868062,252.75200418095008" stroke="black" /><polygon fill="yellow" opacity="0.5" points="335.1389125757509,181.06325438064155 84.14931117868062,252.75200418095008 178.1185732572715,286.954018513517" stroke="black" /><polygon fill="white" opacity="0.5" points="321.88142674272854,313.045981486483 415.8506888213194,347.24799581904995 164.8610874242491,418.9367456193585" stroke="black" /><polygon fill="white" opacity="0.5" points="415.8506888213194,347.24799581904995 164.8610874242491,418.9367456193585 258.83034950283997,453.1387599519253" stroke="black" /><polygon fill="blue" opacity="0.5" points="400.0,158.5786437626905 541.4213562373095,300.0 400.0,158.5786437626905" stroke="black" /><polygon fill="blue" opacity="0.5" points="541.4213562373095,300.0 400.0,158.5786437626905 541.4213562373095,300.0" stroke="black" /><polygon fill="red" opacity="0.5" points="258.5786437626905,300.0 400.0,441.4213562373095 258.5786437626905,300.0" stroke="black" /><polygon fill="red" opacity="0.5" points="400.0,441.4213562373095 258.5786437626905,300.0 400.0,441.4213562373095" stroke="black" /><polygon fill="green" opacity="0.5" points="400.0,158.5786437626905 541.4213562373095,300.0 258.5786437626905,300.0" stroke="black" /><polygon fill="green" opacity="0.5" points="541.4213562373095,300.0 258.5786437626905,300.0 400.0,441.4213562373095" stroke="black" /><polygon fill="purple" opacity="0.5" points="400.0,158.5786437626905 541.4213562373095,300.0 258.5786437626905,300.0" stroke="black" /><polygon fill="purple" opacity="0.5" points="541.4213562373095,300.0 258.5786437626905,300.0 400.0,441.4213562373095" stroke="black" /><polygon fill="yellow" opacity="0.5" points="400.0,158.5786437626905 400.0,158.5786437626905 258.5786437626905,300.0" stroke="black" /><polygon fill="yellow" opacity="0.5" points="400.0,158.5786437626905 258.5786437626905,300.0 258.5786437626905,300.0" stroke="black" /><polygon fill="white" opacity="0.5" points="541.4213562373095,300.0 541.4213562373095,300.0 400.0,441.4213562373095" stroke="black" /><polygon fill="white" opacity="0.5" points="541.4213562373095,300.0 400.0,441.4213562373095 400.0,441.4213562373095" stroke="black" /><polygon fill="blue" opacity="0.5" points="563.5889723318459,205.51313942499004 716.5797916642778,288.551360119208 486.98452801994813,141.23437845633615" stroke="black" /><polygon fill="blue" opacity="0.5" points="716.5797916642778,288.551360119208 486.98452801994813,141.23437845633615 639.97534735238,224.27259915055413" stroke="black" /><polygon fill="red" opacity="0.5" points="460.02465264762003,375.72740084944587 613.0154719800519,458.7656215436639 383.42020833572224,311.448639880792" stroke="black" /><polygon fill="red" opacity="0.5" points="613.0154719800519,458.7656215436639 383.42020833572224,311.448639880792 536.4110276681541,394.4868605750099" stroke="black" /><polygon fill="green" opacity="0.5" points="563.5889723318459,205.51313942499004 716.5797916642778,288.551360119208 460.02465264762003,375.72740084944587" stroke="black" /><polygon fill="green" opacity="0.5" points="716.5797916642778,288.551360119208 460.02465264762003,375.72740084944587 613.0154719800519,458.7656215436639" stroke="black" /><polygon fill="purple" opacity="0.5" points="486.98452801994813,141.23437845633615 639.97534735238,224.27259915055413 383.42020833572224,311.448639880792" stroke="black" /><polygon fill="purple" opacity="0.5" points="639.97534735238,224.27259915055413 383.42020833572224,311.448639880792 536.4110276681541,394.4868605750099" stroke="black" /><polygon fill="yellow" opacity="0.5" points="563.5889723318459,205.51313942499004 486.98452801994813,141.23437845633615 460.02465264762003,375.72740084944587" stroke="black" /><polygon fill="yellow" opacity="0.5" points="486.98452801994813,141.23437845633615 460.02465264762003,375.72740084944587 383.42020833572224,311.448639880792" stroke="black" /><polygon fill="white" opacity="0.5" points="716.5797916642778,288.551360119208 639.97534735238,224.27259915055413 613.0154719800519,458.7656215436639" stroke="black" /><polygon fill="white" opacity="0.5" points="639.97534735238,224.27259915055413 613.0154719800519,458.7656215436639 536.4110276681541,394.4868605750099" stroke="black" /><polygon fill="blue" opacity="0.5" points="729.717792354636,297.21150334612685 870.2488791606133,286.22462520691766 618.3837125093521,164.52871371233917" stroke="black" /><polygon fill="blue" opacity="0.5" points="870.2488791606133,286.22462520691766 618.3837125093521,164.52871371233917 758.9147993153294,153.54183557313" stroke="black" /><polygon fill="red" opacity="0.5" points="641.0852006846706,446.45816442687 781.6162874906479,435.47128628766086 529.7511208393867,313.77537479308234" stroke="black" /><polygon fill="red" opacity="0.5" points="781.6162874906479,435.47128628766086 529.7511208393867,313.77537479308234 670.282207645364,302.78849665387315" stroke="black" /><polygon fill="green" opacity="0.5" points="729.717792354636,297.21150334612685 870.2488791606133,286.22462520691766 641.0852006846706,446.45816442687" stroke="black" /><polygon fill="green" opacity="0.5" points="870.2488791606133,286.22462520691766 641.0852006846706,446.45816442687 781.6162874906479,435.47128628766086" stroke="black" /><polygon fill="purple" opacity="0.5" points="618.3837125093521,164.52871371233917 758.9147993153294,153.54183557313 529.7511208393867,313.77537479308234" stroke="black" /><polygon fill="purple" opacity="0.5" points="758.9147993153294,153.54183557313 529.7511208393867,313.77537479308234 670.282207645364,302.78849665387315" stroke="black" /><polygon fill="yellow" opacity="0.5" points="729.717792354636,297.21150334612685 618.3837125093521,164.52871371233917 641.0852006846706,446.45816442687" stroke="black" /><polygon fill="yellow" opacity="0.5" points="618.3837125093521,164.52871371233917 641.0852006846706,446.45816442687 529.7511208393867,313.77537479308234" stroke="black" /><polygon fill="white" opacity="0.5" points="870.2488791606133,286.22462520691766 758.9147993153294,153.54183557313 781.6162874906479,435.47128628766086" stroke="black" /><polygon fill="white" opacity="0.5" points="758.9147993153294,153.54183557313 781.6162874906479,435.47128628766086 670.282207645364,302.78849665387315" stroke="black" /><polygon fill="blue" opacity="0.5" points="868.3012701892219,404.9038105676658 1018.3012701892219,318.3012701892219 768.3012701892219,231.69872981077808" stroke="black" /><polygon fill="blue" opacity="0.5" points="1018.3012701892219,318.3012701892219 768.3012701892219,231.69872981077808 918.3012701892219,145.0961894323342" stroke="black" /><polygon fill="red" opacity="0.5" points="781.6987298107781,454.9038105676658 931.6987298107781,368.3012701892219 681.6987298107781,281.6987298107781" stroke="black" /><polygon fill="red" opacity="0.5" points="931.6987298107781,368.3012701892219 681.6987298107781,281.6987298107781 831.6987298107781,195.0961894323342" stroke="black" /><polygon fill="green" opacity="0.5" points="868.3012701892219,404.9038105676658 1018.3012701892219,318.3012701892219 781.6987298107781,454.9038105676658" stroke="black" /><polygon fill="green" opacity="0.5" points="1018.3012701892219,318.3012701892219 781.6987298107781,454.9038105676658 931.6987298107781,368.3012701892219" stroke="black" /><polygon fill="purple" opacity="0.5" points="768.3012701892219,231.69872981077808 918.3012701892219,145.0961894323342 681.6987298107781,281.6987298107781" stroke="black" /><polygon fill="purple" opacity="0.5" points="918.3012701892219,145.0961894323342 681.6987298107781,281.6987298107781 831.6987298107781,195.0961894323342" stroke="black" /><polygon fill="yellow" opacity="0.5" points="868.3012701892219,404.9038105676658 768.3012701892219,231.69872981077808 781.6987298107781,454.9038105676658" stroke="black" /><polygon fill="yellow" opacity="0.5" points="768.3012701892219,231.69872981077808 781.6987298107781,454.9038105676658 681.6987298107781,281.6987298107781" stroke="black" /><polygon fill="white" opacity="0.5" points="1018.3012701892219,318.3012701892219 918.3012701892219,145.0961894323342 931.6987298107781,368.3012701892219" stroke="black" /><polygon fill="white" opacity="0.5" points="918.3012701892219,145.0961894323342 931.6987298107781,368.3012701892219 831.6987298107781,195.0961894323342" stroke="black" /><polygon fill="blue" opacity="0.5" points="962.7244770906163,463.3715522635749 1146.9669364605672,387.0378607473439 903.4848505454116,300.6120159937002" stroke="black" /><polygon fill="blue" opacity="0.5" points="1146.9669364605672,387.0378607473439 903.4848505454116,300.6120159937002 1087.7273099153624,224.2783244774692" stroke="black" /><polygon fill="red" opacity="0.5" points="912.2726900846375,375.7216755225308 1096.5151494545885,299.3879840062998 853.0330635394328,212.96213925265607" stroke="black" /><polygon fill="red" opacity="0.5" points="1096.5151494545885,299.3879840062998 853.0330635394328,212.96213925265607 1037.2755229093837,136.6284477364251" stroke="black" /><polygon fill="green" opacity="0.5" points="962.7244770906163,463.3715522635749 1146.9669364605672,387.0378607473439 912.2726900846375,375.7216755225308" stroke="black" /><polygon fill="green" opacity="0.5" points="1146.9669364605672,387.0378607473439 912.2726900846375,375.7216755225308 1096.5151494545885,299.3879840062998" stroke="black" /><polygon fill="purple" opacity="0.5" points="903.4848505454116,300.6120159937002 1087.7273099153624,224.2783244774692 853.0330635394328,212.96213925265607" stroke="black" /><polygon fill="purple" opacity="0.5" points="1087.7273099153624,224.2783244774692 853.0330635394328,212.96213925265607 1037.2755229093837,136.6284477364251" stroke="black" /><polygon fill="yellow" opacity="0.5" points="962.7244770906163,463.3715522635749 903.4848505454116,300.6120159937002 912.2726900846375,375.7216755225308" stroke="black" /><polygon fill="yellow" opacity="0.5" points="903.4848505454116,300.6120159937002 912.2726900846375,375.7216755225308 853.0330635394328,212.96213925265607" stroke="black" /><polygon fill="white" opacity="0.5" points="1146.9669364605672,387.0378607473439 1087.7273099153624,224.2783244774692 1096.5151494545885,299.3879840062998" stroke="black" /><polygon fill="white" opacity="0.5" points="1087.7273099153624,224.2783244774692 1096.5151494545885,299.3879840062998 1037.2755229093837,136.6284477364251" stroke="black" /><polygon fill="blue" opacity="0.5" points="1041.4463639981348,422.4707010726418 1236.8165328730438,448.17516234660025 1024.0815462314417,323.9899257714209" stroke="black" /><polygon fill="blue" opacity="0.5" points="1236.8165328730438,448.17516234660025 1024.0815462314417,323.9899257714209 1219.4517151063505,349.6943870453794" stroke="black" /><polygon fill="red" opacity="0.5" points="1080.5482848936495,250.3056129546206 1275.9184537685583,276.0100742285791 1063.1834671269562,151.82483765339973" stroke="black" /><polygon fill="red" opacity="0.5" points="1275.9184537685583,276.0100742285791 1063.1834671269562,151.82483765339973 1258.5536360018652,177.52929892735818" stroke="black" /><polygon fill="green" opacity="0.5" points="1041.4463639981348,422.4707010726418 1236.8165328730438,448.17516234660025 1080.5482848936495,250.3056129546206" stroke="black" /><polygon fill="green" opacity="0.5" points="1236.8165328730438,448.17516234660025 1080.5482848936495,250.3056129546206 1275.9184537685583,276.0100742285791" stroke="black" /><polygon fill="purple" opacity="0.5" points="1024.0815462314417,323.9899257714209 1219.4517151063505,349.6943870453794 1063.1834671269562,151.82483765339973" stroke="black" /><polygon fill="purple" opacity="0.5" points="1219.4517151063505,349.6943870453794 1063.1834671269562,151.82483765339973 1258.5536360018652,177.52929892735818" stroke="black" /><polygon fill="yellow" opacity="0.5" points="1041.4463639981348,422.4707010726418 1024.0815462314417,323.9899257714209 1080.5482848936495,250.3056129546206" stroke="black" /><polygon fill="yellow" opacity="0.5" points="1024.0815462314417,323.9899257714209 1080.5482848936495,250.3056129546206 1063.1834671269562,151.82483765339973" stroke="black" /><polygon fill="white" opacity="0.5" points="1236.8165328730438,448.17516234660025 1219.4517151063505,349.6943870453794 1275.9184537685583,276.0100742285791" stroke="black" /><polygon fill="white" opacity="0.5" points="1219.4517151063505,349.6943870453794 1275.9184537685583,276.0100742285791 1258.5536360018652,177.52929892735818" stroke="black" /><polygon fill="blue" opacity="0.5" points="1158.5786437626905,300.00000000000006 1300.0,441.4213562373095 1158.5786437626905,300.0" stroke="black" /><polygon fill="blue" opacity="0.5" points="1300.0,441.4213562373095 1158.5786437626905,300.0 1300.0,441.4213562373095" stroke="black" /><polygon fill="red" opacity="0.5" points="1300.0,158.57864376269052 1441.4213562373095,300.0 1300.0,158.57864376269046" stroke="black" /><polygon fill="red" opacity="0.5" points="1441.4213562373095,300.0 1300.0,158.57864376269046 1441.4213562373095,299.99999999999994" stroke="black" /><polygon fill="green" opacity="0.5" points="1158.5786437626905,300.00000000000006 1300.0,441.4213562373095 1300.0,158.57864376269052" stroke="black" /><polygon fill="green" opacity="0.5" points="1300.0,441.4213562373095 1300.0,158.57864376269052 1441.4213562373095,300.0" stroke="black" /><polygon fill="purple" opacity="0.5" points="1158.5786437626905,300.0 1300.0,441.4213562373095 1300.0,158.57864376269046" stroke="black" /><polygon fill="purple" opacity="0.5" points="1300.0,441.4213562373095 1300.0,158.57864376269046 1441.4213562373095,299.99999999999994" stroke="black" /><polygon fill="yellow" opacity="0.5" points="1158.5786437626905,300.00000000000006 1158.5786437626905,300.0 1300.0,158.57864376269052" stroke="black" /><polygon fill="yellow" opacity="0.5" points="1158.5786437626905,300.0 1300.0,158.57864376269052 1300.0,158.57864376269046" stroke="black" /><polygon fill="white" opacity="0.5" points="1300.0,441.4213562373095 1300.0,441.4213562373095 1441.4213562373095,300.0" stroke="black" /><polygon fill="white" opacity="0.5" points="1300.0,441.4213562373095 1441.4213562373095,300.0 1441.4213562373095,299.99999999999994" stroke="black" /></svg>