<?xml version="1.0" encoding="utf-8" ?>
<svg baseProfile="full" height="600" version="1.1" width="800" xmlns="http://www.w3.org/2000/svg" xmlns:ev="http://www.w3.org/2001/xml-events" xmlns:xlink="http://www.w3.org/1999/xlink"><defs /><polygon fill="blue" opacity="0.5" points="100.0,350.0 0.0,300.0 200.0,300.0" stroke="black" /><polygon fill="blue" opacity="0.5" points="0.0,300.0 0.0,230.0 50.0,300.0" stroke="black" /><polygon fill="red" opacity="0.5" points="50.0,300.0 100.0,270.0 150.0,300.0" stroke="black" /><polygon fill="red" opacity="0.5" points="150.0,300.0 200.0,300.0 200.0,230.0" stroke="black" /><polygon fill="blue" opacity="0.5" points="290.0,300.0 250.0,380.0 250.0,220.0" stroke="black" /><polygon fill="blue" opacity="0.5" points="250.0,380.0 194.0,380.0 250.0,340.0" stroke="black" /><polygon fill="red" opacity="0.5" points="250.0,340.0 226.0,300.0 250.0,260.0" stroke="black" /><polygon fill="red" opacity="0.5" points="250.0,260.0 250.0,220.0 194.0,220.0" stroke="black" /><polygon fill="blue" opacity="0.5" points="427.71281292110206,316.0 368.0,355.4256258422041 432.0,244.57437415779592" stroke="black" /><polygon fill="blue" opacity="0.5" points="368.0,355.4256258422041 329.20206191045713,333.0256258422041 384.0,327.71281292110206" stroke="black" /><polygon fill="red" opacity="0.5" points="384.0,327.71281292110206 383.37231224733875,290.4 416.0,272.28718707889794" stroke="black" /><polygon fill="red" opacity="0.5" points="416.0,272.28718707889794 432.0,244.57437415779592 393.20206191045713,222.1743741577959" stroke="black" /><polygon fill="blue" opacity="0.5" points="568.1019335983756,318.10193359837564 513.7961328032487,336.2038671967512 586.2038671967513,263.7961328032488" stroke="black" /><polygon fill="blue" opacity="0.5" points="513.7961328032487,336.2038671967512 488.45342576552287,310.86116015902536 531.8980664016244,318.10193359837564" stroke="black" /><polygon fill="red" opacity="0.5" points="531.8980664016244,318.10193359837564 539.1388398409746,289.13883984097464 568.1019335983756,281.89806640162436" stroke="black" /><polygon fill="red" opacity="0.5" points="568.1019335983756,281.89806640162436 586.2038671967513,263.7961328032488 560.8611601590254,238.4534257655229" stroke="black" /><polygon fill="blue" opacity="0.5" points="712.0378419669498,316.5686680447989 666.8626639104021,324.0756839338997 733.1373360895979,275.9243160661003" stroke="black" /><polygon fill="blue" opacity="0.5" points="666.8626639104021,324.0756839338997 650.0096851566724,300.8795486711812 683.4313319552011,312.0378419669498" stroke="black" /><polygon fill="red" opacity="0.5" points="683.4313319552011,312.0378419669498 692.7772948198301,290.05879917312063 716.5686680447989,287.9621580330502" stroke="black" /><polygon fill="red" opacity="0.5" points="716.5686680447989,287.9621580330502 733.1373360895979,275.9243160661003 716.2843573358681,252.7281808033818" stroke="black" /></svg>