<?xml version="1.0" encoding="utf-8" ?>
<svg baseProfile="full" height="600" version="1.1" width="800" xmlns="http://www.w3.org/2000/svg" xmlns:ev="http://www.w3.org/2001/xml-events" xmlns:xlink="http://www.w3.org/1999/xlink"><defs /><polygon fill="blue" opacity="0.5" points="361.60676519529807,158.28754931158636 371.7508001431239,344.13402546939614 532.1804715857868,188.3642959476734" stroke="black" /><polygon fill="blue" opacity="0.5" points="371.7508001431239,344.13402546939614 532.1804715857868,188.3642959476734 542.3245065336125,374.2107721054832" stroke="black" /><polygon fill="red" opacity="0.5" points="257.6754934663875,225.78922789451678 267.81952841421327,411.63570405232656 428.2491998568761,255.86597453060384" stroke="black" /><polygon fill="red" opacity="0.5" points="267.81952841421327,411.63570405232656 428.2491998568761,255.86597453060384 438.39323480470193,441.71245068841364" stroke="black" /><polygon fill="green" opacity="0.5" points="361.60676519529807,158.28754931158636 371.7508001431239,344.13402546939614 257.6754934663875,225.78922789451678" stroke="black" /><polygon fill="green" opacity="0.5" points="371.7508001431239,344.13402546939614 257.6754934663875,225.78922789451678 267.81952841421327,411.63570405232656" stroke="black" /><polygon fill="purple" opacity="0.5" points="532.1804715857868,188.3642959476734 542.3245065336125,374.2107721054832 428.2491998568761,255.86597453060384" stroke="black" /><polygon fill="purple" opacity="0.5" points="542.3245065336125,374.2107721054832 428.2491998568761,255.86597453060384 438.39323480470193,441.71245068841364" stroke="black" /><polygon fill="yellow" opacity="0.5" points="361.60676519529807,158.28754931158636 532.1804715857868,188.3642959476734 257.6754934663875,225.78922789451678" stroke="black" /><polygon fill="yellow" opacity="0.5" points="532.1804715857868,188.3642959476734 257.6754934663875,225.78922789451678 428.2491998568761,255.86597453060384" stroke="black" /><polygon fill="white" opacity="0.5" points="371.7508001431239,344.13402546939614 542.3245065336125,374.2107721054832 267.81952841421327,411.63570405232656" stroke="black" /><polygon fill="white" opacity="0.5" points="542.3245065336125,374.2107721054832 267.81952841421327,411.63570405232656 438.39323480470193,441.71245068841364" stroke="black" /></svg>