<?xml version="1.0" encoding="utf-8" ?>
<svg baseProfile="full" height="600" version="1.1" width="800" xmlns="http://www.w3.org/2000/svg" xmlns:ev="http://www.w3.org/2001/xml-events" xmlns:xlink="http://www.w3.org/1999/xlink"><defs /><polygon fill="#FF0000" opacity="0.4" points="50.0,150.0 150.0,150.0 150.0,250.0 50.0,250.0" stroke="#000000" /><polygon fill="#FF0000" opacity="0.4" points="81.09214883569152,132.1495949752712 168.8504050247288,180.09214883569152 120.90785116430848,267.8504050247288 33.149594975271214,219.90785116430848" stroke="#000000" /><polygon fill="#FF0000" opacity="0.4" points="119.05843394698783,130.91133546619818 173.08866453380182,215.05843394698783 88.94156605301217,269.0886645338018 34.91133546619818,184.94156605301217" stroke="#000000" /><polygon fill="#FF0000" opacity="0.4" points="155.33788924681758,146.58839058641212 162.41160941358788,246.33788924681758 62.66211075318242,253.41160941358788 55.58839058641213,153.66211075318242" stroke="#000000" /><polygon fill="#FF0000" opacity="0.4" points="182.2722131686412,175.34247048607304 140.65752951392696,266.2722131686412 49.7277868313588,224.65752951392696 91.34247048607304,133.7277868313588" stroke="#000000" /><polygon fill="#FF0000" opacity="0.4" points="194.9807879825445,210.13357357214886 114.86642642785114,269.9807879825445 55.01921201745549,189.86642642785114 135.13357357214886,130.0192120174555" stroke="#000000" /><polygon fill="#FF0000" opacity="0.4" points="192.55562523301563,242.4436244270289 93.55637557297109,256.55562523301563 79.44437476698437,157.5563755729711 178.4436244270289,143.44437476698437" stroke="#000000" /><polygon fill="#FF0000" opacity="0.4" points="178.28367298005884,264.3619957490208 84.6380042509792,229.28367298005884 119.71632701994118,135.63800425097918 213.36199574902082,170.71632701994116" stroke="#000000" /><polygon fill="#FF0000" opacity="0.4" points="158.8420562777842,270.522305808577 93.47769419142298,194.8420562777842 169.1579437222158,129.47769419142298 234.52230580857702,205.1579437222158" stroke="#000000" /><polygon fill="#FF0000" opacity="0.4" points="142.66328408828414,259.4162958547938 121.58370414520616,161.66328408828414 219.33671591171586,140.58370414520616 240.41629585479384,238.33671591171586" stroke="#000000" /><polygon fill="#FF0000" opacity="0.4" points="137.87067699368177,233.76310445999562 166.23689554000438,137.87067699368177 262.12932300631826,166.23689554000438 233.76310445999562,262.12932300631826" stroke="#000000" /><polygon fill="#FF0000" opacity="0.4" points="150.2894950069174,199.8435275639566 221.1564724360434,129.2894950069174 291.7105049930826,200.1564724360434 220.8435275639566,270.7105049930826" stroke="#000000" /><polygon fill="#FF0000" opacity="0.4" points="182.02071075753543,165.962260577428 278.03773942257203,138.02071075753543 305.9792892424646,234.037739422572 209.962260577428,261.9792892424646" stroke="#000000" /><polygon fill="#FF0000" opacity="0.4" points="230.92661811798962,140.41461930920804 328.58538069079196,161.92661811798962 307.0733818820104,259.58538069079196 209.41461930920804,238.07338188201038" stroke="#000000" /><polygon fill="#FF0000" opacity="0.4" points="291.1542172187742,129.45555734689532 366.5444426531047,195.15421721877422 300.8457827812258,270.5444426531047 225.45555734689532,204.84578278122578" stroke="#000000" /><polygon fill="#FF0000" opacity="0.4" points="354.56823294698563,135.76823526951176 389.23176473048824,229.56823294698566 295.43176705301437,264.23176473048824 260.76823526951176,170.43176705301434" stroke="#000000" /><polygon fill="#FF0000" opacity="0.4" points="412.74291402159974,157.8070893592616 398.19291064073843,256.74291402159974 299.25708597840026,242.1929106407384 313.80708935926157,143.25708597840023" stroke="#000000" /><polygon fill="#FF0000" opacity="0.4" points="459.0249507654157,190.17623950306665 398.82376049693335,270.0249507654157 318.9750492345843,209.82376049693335 379.17623950306665,129.9750492345843" stroke="#000000" /><polygon fill="#FF0000" opacity="0.4" points="490.1624373563217,224.95058883214602 399.049411167854,266.1624373563217 357.8375626436783,175.04941116785398 448.950588832146,133.83756264367833" stroke="#000000" /><polygon fill="#FF0000" opacity="0.4" points="507.1010517867285,253.6161638329094 407.38383616709064,246.10105178672845 414.8989482132715,146.3838361670906 514.6161638329094,153.89894821327155" stroke="#000000" /><polygon fill="#FF0000" opacity="0.4" points="514.7525209093542,269.1546319982911 430.8453680017089,214.75252090935413 485.24747909064587,130.8453680017089 569.154631998291,185.24747909064587" stroke="#000000" /><polygon fill="#FF0000" opacity="0.4" points="520.7920584012161,267.76163439838314 473.23836560161686,179.79205840121614 561.2079415987839,132.23836560161686 608.7616343983831,220.20794159878386" stroke="#000000" /><polygon fill="#FF0000" opacity="0.4" points="533.7792047730622,249.77822542813263 534.2217745718674,149.77920477306228 634.2207952269378,150.22177457186737 633.7782254281326,250.22079522693772" stroke="#000000" /><polygon fill="#FF0000" opacity="0.4" points="561.0621533279283,219.60737079677114 609.3926292032289,132.06215332792829 696.9378466720717,180.39262920322886 648.6073707967711,267.9378466720717" stroke="#000000" /><polygon fill="#FF0000" opacity="0.4" points="606.9786561633537,184.63594796339714 691.3640520366029,130.97865616335366 745.0213438366463,215.36405203660286 660.6359479633971,269.02134383664634" stroke="#000000" /></svg>