<?xml version="1.0" encoding="utf-8" ?>
<svg baseProfile="full" height="600" version="1.1" width="800" xmlns="http://www.w3.org/2000/svg" xmlns:ev="http://www.w3.org/2001/xml-events" xmlns:xlink="http://www.w3.org/1999/xlink"><defs /><polygon fill="blue" opacity="0.5" points="280.0,180.0 280.0,420.0 520.0,180.0" stroke="black" /><polygon fill="blue" opacity="0.5" points="280.0,420.0 520.0,180.0 520.0,420.0" stroke="black" /><polygon fill="red" opacity="0.5" points="280.0,180.0 280.0,420.0 520.0,180.0" stroke="black" /><polygon fill="red" opacity="0.5" points="280.0,420.0 520.0,180.0 520.0,420.0" stroke="black" /><polygon fill="green" opacity="0.5" points="280.0,180.0 280.0,420.0 280.0,180.0" stroke="black" /><polygon fill="green" opacity="0.5" points="280.0,420.0 280.0,180.0 280.0,420.0" stroke="black" /><polygon fill="purple" opacity="0.5" points="520.0,180.0 520.0,420.0 520.0,180.0" stroke="black" /><polygon fill="purple" opacity="0.5" points="520.0,420.0 520.0,180.0 520.0,420.0" stroke="black" /><polygon fill="yellow" opacity="0.5" points="280.0,180.0 520.0,180.0 280.0,180.0" stroke="black" /><polygon fill="yellow" opacity="0.5" points="520.0,180.0 280.0,180.0 520.0,180.0" stroke="black" /><polygon fill="white" opacity="0.5" points="280.0,420.0 520.0,420.0 280.0,420.0" stroke="black" /><polygon fill="white" opacity="0.5" points="520.0,420.0 280.0,420.0 520.0,420.0" stroke="black" /></svg>