<?xml version="1.0" encoding="utf-8" ?>
<svg baseProfile="full" height="600" version="1.1" width="800" xmlns="http://www.w3.org/2000/svg" xmlns:ev="http://www.w3.org/2001/xml-events" xmlns:xlink="http://www.w3.org/1999/xlink"><defs /><polygon fill="#FF0000" opacity="0.7" points="0.0,100.0 200.0,100.0 200.0,300.0 0.0,300.0" stroke="#000000" /><polygon fill="#FF0000" opacity="0.7" points="143.99833148757327,88.942147985508 301.057852014492,153.99833148757327 236.00166851242673,311.057852014492 78.942147985508,246.00166851242673" stroke="#000000" /><polygon fill="#FF0000" opacity="0.7" points="280.0,97.8230701185439 382.1769298814561,200.0 280.0,302.1769298814561 177.8230701185439,200.0" stroke="#000000" /><polygon fill="#FF0000" opacity="0.7" points="403.2362055002283,119.76070191952954 450.23929808047046,233.23620550022832 336.7637944997717,280.23929808047046 289.76070191952954,166.76379449977168" stroke="#000000" /><polygon fill="#FF0000" opacity="0.7" points="512.200625,147.799375 512.200625,252.200625 407.799375,252.200625 407.799375,147.799375" stroke="#000000" /><polygon fill="#FF0000" opacity="0.7" points="607.9728928631399,175.98684152608504 574.0131584739149,257.9728928631399 492.0271071368601,224.01315847391496 525.9868415260851,142.02710713686008" stroke="#000000" /><polygon fill="#FF0000" opacity="0.7" points="693.3369960039319,200.0 640.0,253.33699600393186 586.6630039960681,200.0 640.0,146.66300399606814" stroke="#000000" /><polygon fill="#FF0000" opacity="0.7" points="771.8854150936186,217.34950699740355 712.6504930025965,241.88541509361858 688.1145849063814,182.65049300259645 747.3495069974035,158.11458490638142" stroke="#000000" /><polygon fill="#FF0000" opacity="0.7" points="847.2490525039062,227.24905250390623 792.7509474960938,227.24905250390626 792.7509474960938,172.75094749609377 847.2490525039062,172.75094749609374" stroke="#000000" /></svg>